<svg xmlns="http://www.w3.org/2000/svg" width="1024" height="1024" viewBox="0 0 1024 1024"><path fill="#362514" d="M177.363 249.878c6.2-16.724 18.128-30.416 27.053-45.628 9.011-15.36 16.193-31.427 26.261-46.232 11.113-16.342 24.982-31.931 42.969-40.796a98.4 98.4 0 0 1 37.316-10.122c7.312-.469 14.688-.028 22.012-.129a112.7 112.7 0 0 0 31.115-5.081c32.187-10.175 56.093-36.888 89.82-43.133a89.3 89.3 0 0 1 36.165 1.001c46.41 11.299 69.554 58.09 100.133 90.039 7.623 7.965 16.035 14.745 25.129 20.949 45.681-17.596 103.661-34.003 152.404-20.227 26.877 7.597 51.062 23.602 64.836 48.386 4.227 6.745 7.523 15.322 8.73 23.202 2.999 11.849 3.456 32.575.006 44.264-1.616 9.033-4.444 23.224-8.79 31.186-13.204 39.769-51.196 88.942-82.796 115.806a222 222 0 0 1-35.253 24.277c.441 10.104-.121 23.77 5.371 32.695 2.034 3.305 6.039 6.645 7.401 10.082 8.188 9.506 16.663 23.919 19.596 36.205 8.061 24.745 4.545 46.467-6.191 69.595 6.77 7.915 12.564 16.73 18.479 25.29 15.52 1.516 32.2-.99 46.097-8.312 6.57-3.462 12.733-7.654 19.394-10.964 23.195-11.528 50.161-16.553 75.683-10.653 4.497 1.04 14.928 3.567 17.902 7.24.606.748.409 1.114.407 2.031-4.06 8.537-23.78 19.669-32.454 24.35.189.087.377.177.566.262 5.192 2.34 10.804 3.547 16.061 5.729 14.615 6.065 27.96 18.047 33.791 32.998 1.079 2.767 1.67 5.474.501 8.327-.828 2.021-2.655 3.864-4.66 4.744-7.744 4.569-24.053 5.31-32.701 3.789-8.337.473-16.909-.814-25.251-1.149a87.55 87.55 0 0 1 23.857 35.807c-31.778 3.993-62.726-5.716-89.522-22.655-2.395-1.514-18.056-13.444-18.641-13.609-.623-.176-1.295-.008-1.942-.012-10.213 1.394-20.556 1.643-30.774 2.956-3.28.357-6.902 1.088-10.177 1.05q-3.617.548-7.256.914c1.197 3.891 2.874 8.051 3.471 12.067 8.519 25.156 13.543 68.795 1.796 92.921-1.711 3.513-5.523 10.305-9.297 11.452-1.095.333-2.071.028-3.024-.564-1.169-.726-2.953-2.639-3.68-3.792-2.677-2.05-5.146-4.585-7.703-6.808l-2.071 4.24c-1.575 5.868-1.974 10.747-.755 16.714 2.252 4.879 4.985 9.1 8.273 13.338 4.166 3.654 7.95 7.774 11.96 11.601 5.915 5.646 21.452 18.336 23.718 25.78-1.231 13.004-27.819 36.043-38.345 44.738-11.529 9.525-27.29 21.26-40.659 27.795-6.898 4.675-14.904 8.169-22.397 11.81-45.177 21.953-94.026 33.493-143.823 38.618-6.005 1.413-15.756 1.378-22.044 1.618a474.3 474.3 0 0 1-101.044-5.963c-70.54-11.714-147.661-41.618-201.187-90.184-8.515-7.726-17.632-16.247-24.337-25.624-5.409-5.72-10.18-13.24-13.77-20.202-1.14-1.776-1.816-4.074-2.601-6.039 13.638-15.057 30.174-27.697 45.815-40.563 27.249-22.414 53.77-45.029 84.849-62.118 3.21-1.764 6.977-4.332 10.527-5.188-4.943-9.599-7.495-21.536-8.987-32.146l-.167-2.564c-.517-6.515-.25-12.157.8-18.61-7.287.786-15.43-.559-22.711-1.306a71.7 71.7 0 0 1-12.217-3.141q-.144-.033-.286-.069c-17.164-4.511-43.482-20.21-52.828-35.645a403 403 0 0 1-25.982-3.022 147.5 147.5 0 0 1-71.923-32.427c-4.339-3.659-8.975-7.689-12.346-12.286-11.063-10.425-19.84-31.529-22.329-46.293l-.1-1.241c-2.302-9.265-1.72-19.938-.347-29.292 6.323-37.004 33.411-58.71 65.014-74.989 14.062-7.243 28.568-13.529 42.085-21.822a153 153 0 0 0 34.615-29.052c-.011-4.787.029-9.532.322-14.314.267-6.447 1.579-13.413 3.077-19.686.685-2.869 2.292-6.759 2.403-9.627.055-1.397-1.285-1.98-2.264-2.79-7.635-2.899-22.918-18.279-26.718-25.655-1.726-2.215-3.079-4.754-4.269-7.292-7.047-15.016-6.698-31.435-1.161-46.85"/><path fill="#110C07" d="M517.474 974.26c-.866-.219-1.15-.167-1.797-.819 3.078-1.368 23.632-3.251 29.073-4.035a362 362 0 0 0 18.987-3.338c44.428-8.914 78.971-21.818 119.01-42.61l.947.374c-6.898 4.675-14.904 8.169-22.397 11.81-45.177 21.953-94.026 33.493-143.823 38.618"/><path fill="#110C07" d="M177.363 249.878c.254.46.644.869.761 1.381.226.998-2.768 12.514-3.093 14.772-1.197 8.328-.016 17.116 3.001 24.95 1.419 3.686 4.901 9.251 4.761 13.039-1.726-2.215-3.079-4.754-4.269-7.292-7.047-15.016-6.698-31.435-1.161-46.85"/><path fill="#110C07" d="m64.706 532.488.52-1.283c1.764 1.758 3.208 11.292 4.244 14.325 1.798 5.265 5.176 13.352 8.088 18.019 1.752 2.806 4.05 5.254 5.842 8.034 1.35 2.094 2.053 4.414 3.97 6.081l.092.534-.427.583c-11.063-10.425-19.84-31.529-22.329-46.293"/><path fill="#110C07" d="M727.245 480.417c8.188 9.506 16.663 23.919 19.596 36.205l-.646.359-.59-.28c-2.017-4.284-3.334-8.912-5.453-13.139-1.773-3.536-13.011-21.16-12.907-23.145"/><path fill="#110C07" d="M209.511 329.675c1.464-.438 1.39-.341 2.754.384.666 1.086.778 1.816.657 3.051-.578 5.887-2.676 11.757-3.755 17.586-.877 4.74-.959 9.91-1.99 14.535-.094.422-.239.625-.438.968l-.444-4.421c.267-6.447 1.579-13.413 3.077-19.686.685-2.869 2.292-6.759 2.403-9.627.055-1.397-1.285-1.98-2.264-2.79"/><path fill="#110C07" d="m284.695 687.851.593-1.479c2.161 3.02 2.04 9.256 2.898 12.975 1.501 6.505 5.661 14.706 6.52 20.7-.872.088-.55.202-1.024-.05-4.943-9.599-7.495-21.536-8.987-32.146"/><path fill="#110C07" d="M64.26 501.955c1.02 1.035 1.015 1.571.992 3.017-.074 4.7-.668 9.317-.505 14.042.076 2.19 1.188 8.957.657 10.712-.166.548-.532 1.014-.798 1.521-2.302-9.265-1.72-19.938-.347-29.292"/><path fill="#110C07" d="M899.716 671.048c3.311-1.22 8.13-.641 11.687-.871 3.987-.268 7.958-.738 11.898-1.408 2.528-.434 6.846-2.263 9.116-1.51-7.744 4.569-24.053 5.31-32.701 3.789"/><path fill="#110C07" d="m757.443 672.386-.904-.777c3.975-.966 26.919-3.898 30.182-3.024.553.149.997.564 1.496.845-10.213 1.394-20.556 1.643-30.774 2.956"/><path fill="#110C07" d="m841.306 222.107-.32.418-.623-.024c-3.068-7.236-4.36-15.534-8.159-22.459-.148-.27-.303-.536-.454-.803l.826-.334c4.227 6.745 7.523 15.322 8.73 23.202"/><path fill="#110C07" d="m155.092 833.905 1.052-.284c1.85 1.856 12.838 18.058 12.766 20.028-.006.153-.032.305-.048.458-5.409-5.72-10.18-13.24-13.77-20.202"/><path fill="#110C07" d="m832.522 297.557-.462-.03-.218-.748c4.084-8.812 6.254-21.702 8.921-31.145l.549.737c-1.616 9.033-4.444 23.224-8.79 31.186"/><path fill="#110C07" d="m743.481 686.417-.534.522-.493-.298c-1.351-2.798-3.678-8.656-2.913-11.69.162-.645.54-1.299 1.138-1.621 1.912-1.029 4.627-.557 6.587.106q-3.617.548-7.256.914c1.197 3.891 2.874 8.051 3.471 12.067"/><path fill="#110C07" d="m285.328 666.677.866.179c.958 4.307-.539 13.998-1.666 18.431-.517-6.515-.25-12.157.8-18.61"/><path fill="#110C07" d="m727.02 813.918-1.382-.176c-3.961-2.49-6.497-8.098-7.562-12.45l.671-.712c2.252 4.879 4.985 9.1 8.273 13.338"/><path fill="#110C07" d="m719.502 783.866-.864-.278c.613-1.72 1.209-2.865 2.365-4.284 1.163-.399 1.618-.28 2.678.268 1.577.816 5.342 4.309 5.588 6.108.034.249.005.503.007.754-2.677-2.05-5.146-4.585-7.703-6.808z"/><path fill="#110C07" d="M250.4 662.23c2.371-.937 10.642.549 12.994 1.955.257.154.465.378.697.567l-1.474.619a71.7 71.7 0 0 1-12.217-3.141"/><path fill="#F3B583" d="M569.394 281.344c24.251 10.427 47.163 18.419 73.088 23.66 8.229 14.743 16.56 29.617 23.264 45.126-14.326-6.925-34.305-7.232-49.214-1.945-8.852 3.139-17.089 8.796-21.157 17.519-2.503 5.367-3.648 12.327-1.411 17.972 1.662 4.192 4.524 6.783 8.531 8.628 5.055-1.798 10.071-3.937 15.254-5.324 13.831-3.703 29.434-3.101 42.435 3.127 9.703 4.647 18.653 12.259 22.215 22.697 2.827 8.284 2.646 17.311 3.436 25.945.912 9.966 2.622 20.074 5.582 29.635 9.533 30.789 34.455 40.3 31.596 75.601a82.1 82.1 0 0 1-8.589 30.523 40 40 0 0 1-.974 1.82c-11.222-7.812-22.588-19.545-36.134-22.807 5.805-13.354 8.594-26.752 3.13-40.752-5.234-13.411-17.203-24.989-30.302-30.708-7.665-3.347-14.84-4.031-23.117-4.683-5.351-.422-10.754-.781-15.696-3.077-11.625-5.4-19.173-22.208-23.629-33.434-3.921-9.876-6.298-19.96-8.472-30.324-5.726 4.377-8.938 10.39-9.909 17.498-2.496 18.281 5.846 37.182 16.818 51.29 3.754 4.827 7.752 9.4 12.665 13.079-3.443 1.104-10.146 2.732-12.141 5.992-.43.703-.203.899-.034 1.632 2.585 1.782 23.993-1.55 29.032-1.468 17.352.285 38.783 7.402 42.515 26.781 2.022 10.503-2.267 22.603-8.237 31.163a56.2 56.2 0 0 1-35.946 23.07c-14.079 2.493-29.606-.146-43.176-4.081-4.865-1.411-10.024-3.598-14.993-4.409-9.585-1.565-15.812 1.62-24.948-4.925-4.318-3.093-7.266-7.556-8.118-12.825-1.098-6.789 1.507-13.334 5.514-18.705 2.028-2.718 4.494-5.106 7.017-7.363-7.168-1.586-14.556-1.563-20.926 2.617-7.947 5.215-9.528 13.515-13.136 21.535-4.962 2.845-10.057 5.386-14.923 8.407-22.27 13.826-38.096 25.992-65.837 24.75-7.3-.327-14.604-1.213-21.664-3.137a159 159 0 0 1-9.336-2.939c-9.684 15.552-13.662 31.486-14.823 49.675-5.152-8.551-11.533-18.241-14.262-27.863-1.794-6.32-1.383-14.119-1.927-20.723-1.341-16.308-3.62-46.797-10.999-61.21-3.383-6.607-8.24-12.143-13.116-17.671l2.313-37.638c.439-7.038 1.254-14.345.956-21.383-.86-.89-1.175-1.163-1.317-2.444-.502-4.557-1.401-20.059 1.248-23.344-.076-2.429-.107-4.868-.266-7.293 8.74-4.42 17.508-8.845 25.813-14.054 23.078-14.475 43.903-33.408 63.3-52.441 13.102-12.856 27.627-28.921 42.813-39.096 6.814 2.373 13.829 3.891 20.738 5.936 22.812 6.754 43.588 12.437 67.736 11.05 10.908-.627 21.491-3.537 32.371-4.106-4.564-12.856-11.372-24.511-20.651-34.556"/><path fill="#110C07" d="M337.609 441.692c-.86-.89-1.175-1.163-1.317-2.444-.502-4.557-1.401-20.059 1.248-23.344.706 8.287 1.013 17.514.069 25.788"/><path fill="#362514" d="M468.371 359.193c8.641-1.296 19.15-.29 27.642 1.452 9.407 1.93 17.598 6.116 22.886 14.418 3.418 5.366 4.736 13.199 3.211 19.366-1.155 4.669-4.098 8.406-8.991 9.333-4.838.916-10.594-1.416-15.389-2.276-24.474-4.385-41.874-.287-63.059 12.329-10.706 7.573-17.897 16.113-25.529 26.628a27 27 0 0 1-2.552-1.626c-2.802-1.985-4.5-4.255-4.993-7.705-1.501-10.503 8.448-38.489 15.121-46.998 5.461-6.961 29.144-18.52 37.746-21.655a59 59 0 0 1 13.907-3.266"/><path fill="#362514" d="M481.291 446.212a29 29 0 0 1 3.292-.062c8.63.29 16.468 2.407 22.524 9.047 5.741 6.294 8.335 13.578 7.673 22.083-.134 1.719-.281 3.049-1.645 4.224-2.195.236-4.557-1.679-6.375-2.769-11.599-6.956-24.125-6.622-36.884-3.413a60.8 60.8 0 0 0-13.256 5.825c-4.149 2.444-9.7 7.541-14.2 8.509l-.966-.717c-.717-1.462-1.028-2.688-1.146-4.321-.607-8.404 3.314-17.692 8.761-23.993 8.089-9.358 20.193-13.541 32.222-14.413"/><path fill="#362514" d="M637.048 429.084a58 58 0 0 1 4.74-.2c7.418-.073 14.165 2.353 19.441 7.668 6.564 6.612 8.744 14.898 8.805 23.969-7.056-3.103-13.207-4.407-20.89-4.978a77.5 77.5 0 0 0-18.388 1.757c-4.562.962-9.41 2.521-14.089 2.553-1.058-.539-1.296-.592-1.665-1.808-1.189-3.93 1.404-12.382 3.465-15.907 4.156-7.111 10.811-11.036 18.581-13.054"/><path fill="#362514" d="M411.448 496.189c4.228-.38 9.768.128 13.775 1.612 1.441.535 2.641 1.241 3.255 2.697-.433.919-.48 1.066-1.498 1.42-2.526.877-5.698.932-8.356 1.354-4.152.658-8.337 1.686-12.354 2.923-5.877 1.81-11.355 4.409-16.902 7.024-4.524 2.231-8.939 4.561-13.196 7.276 1.12-3.368 2.445-6.047 4.637-8.826 7.432-9.419 19.002-14.12 30.639-15.48"/><path fill="#362514" d="M472.303 501.162c7.86-.574 15.071.123 22.581 2.485-4.276 2.051-8.649 3.806-13.049 5.568-8.072 2.171-13.946.945-21.604-1.832 3.77-3.203 7.283-5.076 12.072-6.221"/><path fill="#885824" d="M398.442 125.883c6.765-4.162 13.543-8.272 20.154-12.678 10.96-7.303 23.057-16.762 35.585-21.092 5.294-1.83 10.772-2.348 16.347-2.323 6.993.032 13.412 1.029 19.841 3.874 27.397 12.128 54.843 52.641 76.285 74.387-15.45 4.26-31.368 7.311-46.937 11.203a648 648 0 0 0-51.678 15.513c-31.062 10.515-60.099 24.995-88.479 41.291-47.611 27.338-84.184 53.95-125.461 89.949-1.077-25.096 6.346-47.68 13.744-71.233 2.963-9.436 5.607-19.076 9.81-28.048-15.683 15.111-29.413 32.033-42.477 49.422-5.402 7.191-10.161 15.673-16.256 22.219-3.405-1.956-6.241-4.222-8.751-7.258-4.16-5.03-6.932-12.006-6.198-18.582.606-5.438 3.22-11.015 5.665-15.843 8.357-16.502 19.293-31.694 28.438-47.769 7.469-13.131 13.226-27.813 21.837-40.19a87.5 87.5 0 0 1 18.162-18.855c13.15-10.112 22.225-8.671 37.889-6.606.438-.234.825-.614 1.314-.702 2.06-.37 22.746 3.425 25.189 4.439.309.128.575.341.863.511l.106.616c2.695 1.303 7.193 1.488 10.195 1.802 16.546 1.735 35.458 2.49 51.665-1.466 11.321-2.763 24.204-8.832 30.449-19.092-12.7-.879-24.735-.935-37.301-3.489"/><path fill="#110C07" d="M315.962 143.264c.438-.234.825-.614 1.314-.702 2.06-.37 22.746 3.425 25.189 4.439.309.128.575.341.863.511l.106.616c-9.018-.562-18.583-3.162-27.472-4.864"/><path fill="#885824" d="M732.772 177.97c6.768-2.568 23.497.895 30.296 3.647 1.329.538 1.806.789 2.374 2.105 17.335 7.423 31.855 17.657 39.153 35.712 5.526 13.67 5.65 28.007 5.079 42.532l.821.525c-.705 4.808-10.811 36.273-13.668 38.9-.117.108-.259.185-.389.277l-.868-.229c-4.499 7.151-7.753 15.343-12.104 22.69-18.118 30.589-38.624 54.489-68.141 74.321-7.934-33.884-19.734-64.857-38.884-94.08 19.17-9.984 36.168-23.556 45.477-43.487-5.828 1.312-11.299 2.499-17.289 1.807-14.227-1.644-28.744-8.709-41.937-13.959a394.6 394.6 0 0 0-53.241-17.344c-6.441-1.652-13.109-3.567-19.734-4.23 12.861-11.282 28.315-18.408 43.231-26.402l.31-1.251c1.043-.693 2.096-1.231 3.234-1.749 22.063-10.042 52.674-18.723 76.899-20.301 3.504-.228 7.939-.782 11.269.472 2.704.06 5.407.143 8.112.044"/><path fill="#110C07" d="m632.948 200.755.31-1.251c1.043-.693 2.096-1.231 3.234-1.749 22.063-10.042 52.674-18.723 76.899-20.301 3.504-.228 7.939-.782 11.269.472-31.504.698-63.032 10.318-91.712 22.829"/><path fill="#110C07" d="m809.674 261.966.821.525c-.705 4.808-10.811 36.273-13.668 38.9-.117.108-.259.185-.389.277l-.868-.229a350 350 0 0 0 14.104-39.473"/><path fill="#110C07" d="M732.772 177.97c6.768-2.568 23.497.895 30.296 3.647 1.329.538 1.806.789 2.374 2.105-10.748-3.612-21.305-5.613-32.67-5.752"/><path fill="#885824" d="M844.461 605.278c.144-.682.01-.689.461-1.075 3.473-2.965 23.27-6.688 28.092-6.558l.35.667.299.684c-9.709 12.727-23.827 21.911-35.783 32.441 5.985-.032 12.022.554 17.977.41 3.847-1.221 14.059-.583 17.737 1.607.504.3.886.743 1.235 1.202 6.921 2.339 21.372 7.868 24.803 14.775.399.802.443 1.283.393 2.152l-.614.974c-21.041-3.539-43.158-4.758-64.489-4.496 10.938 9.799 20.377 19.796 23.498 34.569-14.579-3.871-28.695-12.145-41.175-20.547-4.351-2.929-8.784-7.162-13.632-9.117-4.803-1.936-12.124-1.567-17.259-1.861a533.3 533.3 0 0 0-102.547 4.157c-3.709.476-9.687.527-13.011 1.927-.206.087-.386.227-.578.34.704 6.961 1.935 14.487-.818 21.131-.066.159-.142.315-.198.478-1.73 5.061-1.791 13.22-3.383 18.964-9.438 34.059-28.871 52.15-57.869 70.286a87.6 87.6 0 0 0 11.205 10.371c-20.939 5.539-39.801 7.57-60.908.728-4.134-1.34-8.154-3.125-12.225-4.649-1.379.603-1.873.634-3.288.051-1.366-.564-2.717-1.435-4.005-2.162.599 3.816 3.129 13.764 1.321 16.938-.089.157-.214.29-.321.435l-.237.848-.731.372c-5.927-.51-15.465-4.048-21.142-6.054-33.96-12.002-64.202-39.941-81.704-71.071a207 207 0 0 1-8.938-18.219c-1.34-3.154-2.348-6.509-3.84-9.584l-.43-.874c-.697-.424-1.059-.724-1.494-1.436-2.73-4.464-6.955-21.318-5.413-26.3-.679-7.595-1.9-17.593 1.965-24.546 2.717-4.888 6.779-6.482 11.857-7.945l.383-.803c.74.063 1.05-.111 1.547.536 2.366 3.076 2.881 9.602 3.434 13.472-.227.6-.403 1.127-.764 1.661 7.675 34.438 35.004 71.425 64.504 90.118 7.928 5.024 17.011 9.613 26.132 11.973.47-.205.899-.58 1.411-.613.384-.025 20.846 3.594 22.15 4.105l-1.29.448c.724.265 1.547.279 2.311.327 22.932 1.441 47.046-7.783 64.15-22.846 23.473-20.672 34.586-49.993 36.455-80.707 2.895-.339 6.024-.485 8.829-1.255l-.379-.568.184-.522c8.596-1.199 40.469-6.04 47.016-3.728 4.709.086 28.663-1.2 32.146-2.223l-.406-.68.494-.486c7.38.022 34.526-4.888 39.175-2.113 2.74.068 6.074-.063 8.739-.717l-.392-.774c1.819-1.186 6.417-.615 8.739-.968 4.849-.738 9.8-1.93 14.33-3.819 1.057-.441 1.022-.245 2.056.086 4.314-1.439 13.917-8.949 18.647-11.816 4.976-3.016 10.068-5.467 15.238-8.101"/><path fill="#110C07" d="m658.874 641.707-.379-.568.184-.522c8.596-1.199 40.469-6.04 47.016-3.728-15.671 1.147-31.193 3.532-46.821 4.818"/><path fill="#110C07" d="m737.841 634.666-.406-.68.494-.486c7.38.022 34.526-4.888 39.175-2.113-13.058.914-26.201 2.745-39.263 3.279"/><path fill="#110C07" d="M844.461 605.278c.144-.682.01-.689.461-1.075 3.473-2.965 23.27-6.688 28.092-6.558l.35.667c-9.775 1.841-19.492 3.653-28.903 6.966"/><path fill="#110C07" d="M537.1 770.817c2.922 1.452 5.931 2.72 8.922 4.021-1.379.603-1.873.634-3.288.051-1.366-.564-2.717-1.435-4.005-2.162.599 3.816 3.129 13.764 1.321 16.938-.089.157-.214.29-.321.435-.644-6.439-1.712-12.875-2.629-19.283"/><path fill="#110C07" d="M422.707 685.518c-.697-.424-1.059-.724-1.494-1.436-2.73-4.464-6.955-21.318-5.413-26.3 1.507 9.507 3.986 18.582 6.907 27.736"/><path fill="#110C07" d="m785.843 630.67-.392-.774c1.819-1.186 6.417-.615 8.739-.968 4.849-.738 9.8-1.93 14.33-3.819 1.057-.441 1.022-.245 2.056.086-7.817 4.384-15.905 5.018-24.733 5.475"/><path fill="#110C07" d="M524.858 742.248c.47-.205.899-.58 1.411-.613.384-.025 20.846 3.594 22.15 4.105l-1.29.448c-7.596-.206-15.011-1.803-22.271-3.94"/><path fill="#110C07" d="m429.622 625.291.383-.803c.74.063 1.05-.111 1.547.536 2.366 3.076 2.881 9.602 3.434 13.472-.227.6-.403 1.127-.764 1.661-.962-4.171-1.465-8.623-2.715-12.706-.402-1.315-.661-1.568-1.885-2.16"/><path fill="#110C07" d="M855.857 631.847c3.847-1.221 14.059-.583 17.737 1.607.504.3.886.743 1.235 1.202a136 136 0 0 0-18.972-2.809"/><path fill="#110C07" d="M670.218 657.529c.704 6.961 1.935 14.487-.818 21.131.486-7.031.516-14.089.818-21.131"/><path fill="#885824" d="M478.117 227.022c.078-.823-.062-.818.665-1.441 2.091-1.791 6.688-3.041 9.356-4.153 8.746-3.644 40.234-17.102 48.279-15.668l.153.759c-5.253 5.089-14.012 10.102-20.112 15.011a1032 1032 0 0 0-51.595 43.919c-25.245 23.029-49.594 47.06-75.43 69.433-35.765 30.973-77.076 59.987-120.761 78.594-14.213 6.054-29.144 11.038-43.907 15.54a333 333 0 0 1-34.187 8.217c-7.075 1.307-14.402 2.084-21.357 3.899a422 422 0 0 0 43.752-30.142c18.042-14.416 34.815-30.387 52.332-45.421a1090 1090 0 0 1 75.444-59.446 848 848 0 0 1 86.133-53.644c8.513-4.695 17.402-8.827 26.106-13.162 2.99-1.489 6.896-2.934 9.558-4.901-.208-.782-.17-.338.028-1.337 3.102-1.793 6.207-3.249 9.625-4.351l.855.721c1.815-.657 3.399-1.451 5.063-2.427"/><path fill="#110C07" d="M478.117 227.022c.078-.823-.062-.818.665-1.441 2.091-1.791 6.688-3.041 9.356-4.153 8.746-3.644 40.234-17.102 48.279-15.668-9.609 3.208-19.411 5.582-28.934 9.085-9.942 3.657-19.502 8.318-29.366 12.177"/><path fill="#110C07" d="M462.546 234.416c-.208-.782-.17-.338.028-1.337 3.102-1.793 6.207-3.249 9.625-4.351l.855.721z"/><path fill="#F3B583" d="M234.042 491.683c1.511-.216 3.173-.227 4.701-.222 16.474.059 32.676 9.232 43.945 20.753 5.065 5.179 9.484 11.319 12.633 17.852 7.178 14.895 15.987 51.361 15.653 67.797-.244 12.056-3.501 24.104-12.481 32.644-7.917 7.529-16.318 7.775-26.498 7.462-14.211-2.193-25.199-7.8-36.643-16.426-23.244-17.52-35.603-34.559-39.655-64.049-2.293-16.692-.365-36.346 10.151-50.127 6.928-9.078 16.985-14.226 28.194-15.684"/><path fill="#362514" d="M233.315 518.593c3.311-.304 6.515-.379 9.765.443 12.452 3.148 22.47 14.948 28.749 25.527 4.213 7.1 14.549 29.94 12.148 37.974-.312 1.043-.328 1.08-1.316 1.628-3-.698-6.01-4.165-8.808-5.695-2.27-1.242-4.95-1.791-7.458-.972-4.757 1.555-7.171 6.466-9.362 10.575-1.682 3.581-3.222 7.946-5.699 11.021l-.746-.037c-.589-1.091-1.144-2.194-1.569-3.361-4.507-12.381-2.212-28.88 3.066-40.652-2.976-1.901-6.015-3.681-9.274-5.059-8.733-3.695-16.201-3.055-24.871.481-1.295-7.651-1.113-15.706 2.8-22.648 2.928-5.195 7.058-7.585 12.575-9.225"/><path fill="#885824" d="M270.589 775.064c8.608-7.577 24.346-19.911 34.863-24.258.621-.257 1.589-.6 2.201-.227 2.131 1.3 3.274 5.712 4.14 7.969 1.238.537 1.247.622 1.77 1.926.799 1.991 1.151 4.128 1.427 6.244l-.696 1.305c3.464 17.138 10.948 37.306 20.516 51.944 9.796 14.988 21.593 28.881 29.995 44.755 3.733 7.052 5.952 14.91 8.242 22.521.792 2.634 1.425 6.268 2.705 8.655 1.012.449 1.061.219 1.489 1.341 2.865 7.505 6.352 26.657 4.918 34.343-.373.808-.069.415-1.122.981-9.027-2.243-18.204-3.887-27.244-6.107a494 494 0 0 1-48.135-14.662c-.651-6.712-.678-14.114-2.434-20.626l-.585.222-.555-.369c-.756-2.939-1.3-6.229-.269-9.144-.392-5.251-1.648-10.746-2.623-15.925-5.859-31.108-16.63-61.653-28.603-90.888"/><path fill="#110C07" d="M375.752 895.898c1.012.449 1.061.219 1.489 1.341 2.865 7.505 6.352 26.657 4.918 34.343-1.26-12.135-3.567-23.829-6.407-35.684"/><path fill="#110C07" d="M311.793 758.548c1.238.537 1.247.622 1.77 1.926.799 1.991 1.151 4.128 1.427 6.244l-.696 1.305z"/><path fill="#110C07" d="m303.224 891.168-.585.222-.555-.369c-.756-2.939-1.3-6.229-.269-9.144.494 3.07 1.131 6.197 1.409 9.291"/><path fill="#F3B583" d="M347.898 750.748c.603.944.468.601.784 1.498 9.052 25.627 26.73 49.723 45.779 68.88 11.154 11.216 23.743 21.91 40.306 21.943-1.089-7.578-2.028-14.829-1.932-22.523 1.9 3.497 3.72 6.756 6.171 9.916 17.069 22.004 51.54 42.834 78.051 51.467 9.838 3.204 19.911 4.969 30.15 6.271-1.776 4.093-4.275 7.872-6.755 11.562-6.095 8.953-20.024 22.116-28.822 28.637-9.469-2.897-18.695-7.666-27.55-12.038-34.035-16.806-64.966-37.497-91.861-64.406-7.748-7.751-15.408-15.906-21.696-24.907-8.995-12.876-19.772-35.217-22.569-50.558-1.512-8.295-1.494-17.439-.056-25.742"/><path fill="#885824" d="M176.226 592.348c-.32.013-.759.046-1.094.02-4.018-.31-8.934-2.268-12.774-3.517-19.25-6.26-38.024-15.606-51.531-31.143-10.689-12.295-16.847-29.402-15.636-45.74.861-11.623 6.097-23.272 15.055-30.883 17.255-14.662 40.243-12.483 61.186-10.745 3.382-1.959 13.505.253 17.358 1.405.563.168.994.403 1.505.683l.187.765c1.831.548 3.626.925 5.512 1.235-9.167 8.109-20.977 20.123-24.615 32.083.201.418.538.794.603 1.253.055.38-4.836 16.703-5.249 18.838-1.586 8.202-2.69 17.912-2.057 26.229.989 13.002 5.791 24.882 11.321 36.529.508 1.07.901 1.635.667 2.839z"/><path fill="#110C07" d="M171.379 506.511c.201.418.538.794.603 1.253.055.38-4.836 16.703-5.249 18.838-1.586 8.202-2.69 17.912-2.057 26.229.989 13.002 5.791 24.882 11.321 36.529.508 1.07.901 1.635.667 2.839l-.438.149c-1.825-3.187-3.409-6.529-4.89-9.886-11.088-25.14-9.791-50.608.043-75.951"/><path fill="#110C07" d="M171.432 470.34c3.382-1.959 13.505.253 17.358 1.405.563.168.994.403 1.505.683l.187.765c-6.37-.81-12.649-2.133-19.05-2.853"/><path fill="#F3B583" d="M456.132 615.09c13.348 4.015 27.714 13.17 41.678 18.18 27.858 9.995 55.637 12.759 85.092 11.59 9.113-.362 18.211-1.775 27.333-1.643.651.473 1.118.878 1.523 1.599 1.044 1.857.907 4.13.434 6.137-1.153 4.887-3.227 7.598-7.362 10.278a43 43 0 0 1-2.751 1.501c-25.038 12.759-79.252 5.912-105.728-2.775-13.981-4.588-32.33-13.495-39.059-27.509-2.666-5.554-3.086-11.531-1.16-17.358"/><path fill="#885824" d="M243.061 793.596c6.79 18.564 11.818 38.39 16.125 57.694 1.425 6.388 2.506 18.119 4.678 23.624 2.554 2.475 2.645 9.681 2.7 13.158.027 1.688-.092 3.322-.497 4.963l-.472.152c-3.912-.986-8.663-5.093-12.206-7.316-17.564-11.018-34.659-23.998-47.89-40.097-3.953-4.809-7.404-10.102-10.945-15.22 16.391-12.043 32.125-24.953 48.507-36.958"/><path fill="#110C07" d="M263.864 874.914c2.554 2.475 2.645 9.681 2.7 13.158.027 1.688-.092 3.322-.497 4.963-1.097-5.944-1.52-12.112-2.203-18.121"/><path fill="#885824" d="M607.32 890.667c-.405-.462-.224-.161-.393-.977 11.184-1.72 19.962-2.992 30.662-7.237 3.003-1.191 10.137-5.003 13.208-4.418l1.043.182c1.955 4.258-2.414 24.327-4.17 29.176q-.099.27-.201.539c-14.226 10.092-33.096 14.673-49.818 18.898-.764-11.615-1.607-23.762 1.184-35.172 2.286-.323 6.476-.151 8.485-.991"/><path fill="#110C07" d="M607.32 890.667c-.405-.462-.224-.161-.393-.977 11.184-1.72 19.962-2.992 30.662-7.237 3.003-1.191 10.137-5.003 13.208-4.418-13.135 7.198-28.561 11.723-43.477 12.632"/><path fill="#885824" d="M705.538 831.94a472 472 0 0 1 17.646 17.458c-7.628 14.432-19.507 23.613-32.48 32.971-2.896 2.19-6.017 3.966-9.15 5.793.278-9.565-1.686-15.645-3.899-24.73 6.339-5.915 12.894-11.807 18.411-18.511 3.403-4.133 6.304-8.666 9.472-12.981"/><path fill="#885824" d="M516.169 699.161c2.039-.217 4.269-.19 6.313-.038 15.904 1.181 35.03 12.271 45.451 24.192-3.658 1.864-6.882 2.579-10.902 2.992-4.673.063-9.29-.812-13.79-2.007-12.371-3.285-31.13-9.89-37.979-21.639 3.538-1.978 6.964-2.83 10.907-3.5"/></svg>